<?xml version="1.0" standalone="no"?>
<!DOCTYPE svg PUBLIC "-//W3C//DTD SVG 20010904//EN"
 "http://www.w3.org/TR/2001/REC-SVG-20010904/DTD/svg10.dtd">
<svg version="1.0" xmlns="http://www.w3.org/2000/svg"
 width="2500.000000pt" height="2000.000000pt" viewBox="0 0 2500.000000 2000.000000"
 preserveAspectRatio="xMidYMid meet">

<g transform="translate(0.000000,2000.000000) scale(0.100000,-0.100000)"
fill="#000000" stroke="none">
<path d="M11850 16349 c-2528 -113 -4794 -777 -6433 -1886 -638 -431 -1159
-924 -1532 -1448 -252 -354 -450 -750 -566 -1128 -44 -148 -101 -418 -121
-577 -20 -161 -17 -615 6 -765 34 -235 110 -566 126 -548 3 4 26 62 49 128
198 552 533 1068 1012 1560 l157 160 37 98 c140 376 351 728 646 1082 111 132
404 426 554 554 416 356 904 671 1470 951 1306 646 2882 1024 4620 1110 272
14 1034 14 1296 0 1255 -64 2356 -263 3404 -615 1664 -558 2934 -1447 3565
-2495 81 -134 218 -415 266 -547 33 -91 43 -107 86 -144 70 -59 323 -333 438
-474 310 -383 539 -776 690 -1188 26 -70 49 -129 52 -132 6 -6 82 301 97 395
67 414 61 781 -20 1190 -28 138 -97 377 -152 520 -361 943 -1145 1806 -2277
2507 -1613 999 -3765 1592 -6145 1693 -272 11 -1061 11 -1325 -1z"/>
<path d="M12006 15229 c-1841 -76 -3543 -538 -4826 -1307 -256 -154 -532 -350
-765 -543 -152 -125 -488 -467 -609 -619 -357 -448 -566 -894 -657 -1405 -21
-115 -24 -162 -24 -400 0 -217 4 -292 18 -380 25 -148 81 -366 125 -488 32
-90 37 -98 45 -76 6 13 39 84 73 157 386 815 1184 1547 2295 2102 109 55 201
100 204 100 2 0 6 -147 7 -326 l3 -327 248 -144 c172 -101 252 -142 260 -135
30 24 293 161 445 231 1486 692 3444 922 5282 620 452 -74 951 -197 1345 -332
l70 -24 3 -569 2 -569 78 -47 c113 -68 287 -192 399 -285 114 -94 295 -278
373 -377 l53 -68 19 23 c35 45 128 207 162 281 96 212 135 373 143 594 10 278
-38 495 -167 754 -183 366 -535 724 -973 990 -49 30 -90 57 -92 60 -4 7 484
290 501 290 17 0 223 -131 351 -223 319 -230 582 -494 768 -772 77 -116 191
-341 234 -466 68 -199 109 -471 96 -647 l-6 -94 118 -121 c181 -187 312 -359
434 -569 l56 -98 45 98 c87 187 152 420 179 635 15 125 7 441 -15 557 -115
617 -472 1160 -1081 1647 -1314 1050 -3531 1563 -5765 1332 -802 -82 -1600
-274 -2286 -549 -161 -65 -590 -269 -736 -351 l-57 -31 -246 142 c-135 78
-245 145 -245 149 0 9 278 157 450 240 1609 769 3747 1046 5795 750 2031 -293
3726 -1165 4471 -2299 243 -371 369 -700 420 -1100 7 -63 14 -132 14 -155 1
-31 8 -49 36 -80 257 -290 476 -633 610 -954 21 -50 135 347 170 594 22 148
24 496 5 635 -60 436 -219 851 -476 1235 -163 245 -313 423 -546 650 -738 717
-1837 1298 -3139 1659 -1131 313 -2446 457 -3694 405z"/>
<path d="M2475 9815 c4 -1108 5 -1145 66 -1455 130 -659 443 -1285 948 -1890
122 -147 418 -449 586 -599 1312 -1172 3328 -2041 5620 -2420 1260 -209 2558
-271 3905 -186 135 9 256 18 269 21 l24 5 -7 957 c-4 526 -9 958 -11 960 -2 3
-118 -3 -257 -12 -745 -48 -1566 -50 -2268 -6 -1571 99 -3093 419 -4415 929
-587 227 -1248 550 -1735 849 -1661 1019 -2610 2324 -2719 3738 -6 78 -8 -226
-6 -891z"/>
<path d="M22517 10730 c-33 -339 -88 -597 -191 -895 -339 -987 -1122 -1912
-2261 -2670 -174 -116 -482 -305 -497 -305 -6 0 -485 275 -496 285 -1 1 59 40
135 85 411 246 879 592 1171 866 l73 69 29 103 c43 150 77 319 94 472 14 114
16 282 15 1090 -1 611 -5 924 -10 870 -108 -1041 -811 -2037 -1989 -2814 -190
-126 -378 -239 -388 -234 -25 10 -492 284 -492 288 0 3 42 30 93 60 140 83
397 256 542 365 205 154 346 276 533 461 l172 171 0 264 c0 605 -14 1543 -22
1464 -13 -127 -56 -319 -103 -460 -139 -423 -369 -785 -735 -1159 -286 -292
-586 -527 -961 -754 l-116 -70 -238 139 c-131 76 -242 142 -247 147 -6 6 23
29 79 63 244 145 542 366 716 530 l79 74 -8 770 c-6 653 -9 759 -20 695 -68
-427 -306 -848 -690 -1220 -66 -63 -168 -155 -229 -204 -104 -83 -418 -299
-496 -340 l-36 -19 -249 145 c-137 80 -249 145 -250 144 0 -1 2 -435 5 -965
l6 -963 245 -143 245 -143 45 26 c95 53 308 197 421 283 64 49 119 89 123 89
3 0 6 -168 6 -372 l0 -373 248 -144 247 -143 50 27 c86 47 278 172 410 265 69
50 128 90 131 90 2 0 4 -163 4 -363 l0 -363 244 -142 c134 -78 250 -142 257
-142 34 0 478 289 705 460 80 61 148 110 150 110 2 0 4 -243 4 -539 l0 -539
252 -146 252 -147 161 97 c1123 677 1943 1500 2394 2404 200 402 313 767 378
1220 14 98 17 253 20 1055 2 517 3 978 1 1025 l-3 85 -8 -85z"/>
<path d="M4412 9819 c-2 -1048 5 -1172 93 -1504 53 -202 47 -192 172 -303 564
-500 1262 -941 2071 -1308 162 -74 494 -214 506 -214 8 0 5 883 -3 1202 l-6
237 -244 -140 -244 -141 -31 15 c-17 8 -107 62 -199 121 -1189 749 -1918 1696
-2086 2711 -11 66 -22 136 -24 155 -2 19 -5 -355 -5 -831z"/>
</g>
</svg>
